# xmcd
#
# Track frame offsets:
# 150
# 14442
# 30325
# 51343
# 69442
# 86123
# 102349
# 116739
# 134698
# 149133
# 167566
# 180105
#
# Disc length: 2724 seconds
#
#
# Revision: 0
# Processed by: cddbd v1.5PL3 Copyright (c) Steve Scherf et al.
# Submitted via: FreeRIP 2.12 
#
DISCID=a70aa20c
DTITLE=Blues Works - Far From Home
DYEAR=1998
DGENRE=Blues
TTITLE0=Early In the Mornin'
TTITLE1=I Could Be Blue
TTITLE2=D.C. Stop Time
TTITLE3=I'm Crying
TTITLE4=Howard's Boogie
TTITLE5=Far From Home
TTITLE6=Wonderful Time
TTITLE7=Every Fool's Got A Gun
TTITLE8=When I'm Drinking
TTITLE9=St. James Infirmary
TTITLE10=Dving Duck
TTITLE11=Cherry Red
EXTD=
EXTT0=
EXTT1=
EXTT2=
EXTT3=
EXTT4=
EXTT5=
EXTT6=
EXTT7=
EXTT8=
EXTT9=
EXTT10=
EXTT11=
PLAYORDER=
